<?xml version="1.0" ?><svg xmlns="http://www.w3.org/2000/svg" id="Layer_2" viewBox="0 0 32 32"><defs><style>.cls-1{fill:none;}.cls-1,.cls-2{stroke-width:0px;}</style></defs><g id="icons"><g id="Person"><g id="User"><path class="cls-2" d="m18,31h2s0-2,0-2c0-.55.45-1,1-1h6c.55,0,1,.45,1,1v2s2,0,2,0v-2c0-1.65-1.35-3-3-3h-6c-1.65,0-3,1.35-3,3v2Z"/><path class="cls-2" d="m24,25c-2.21,0-4-1.79-4-4s1.79-4,4-4,4,1.79,4,4-1.79,4-4,4Zm0-6c-1.1,0-2,.9-2,2s.9,2,2,2,2-.9,2-2-.9-2-2-2Z"/><path class="cls-2" d="m2,31h2s0-2,0-2c0-.55.45-1,1-1h6c.55,0,1,.45,1,1v2s2,0,2,0v-2c0-1.65-1.35-3-3-3h-6c-1.65,0-3,1.35-3,3v2Z"/><path class="cls-2" d="m8,25c-2.21,0-4-1.79-4-4s1.79-4,4-4,4,1.79,4,4-1.79,4-4,4Zm0-6c-1.1,0-2,.9-2,2s.9,2,2,2,2-.9,2-2-.9-2-2-2Z"/><path class="cls-2" d="m18,16h2s0-2,0-2c0-.55.45-1,1-1h6c.55,0,1,.45,1,1v2s2,0,2,0v-2c0-1.65-1.35-3-3-3h-6c-1.65,0-3,1.35-3,3v2Z"/><path class="cls-2" d="m24,10c-2.21,0-4-1.79-4-4s1.79-4,4-4,4,1.79,4,4-1.79,4-4,4Zm0-6c-1.1,0-2,.9-2,2s.9,2,2,2,2-.9,2-2-.9-2-2-2Z"/><path class="cls-2" d="m2,16h2s0-2,0-2c0-.55.45-1,1-1h6c.55,0,1,.45,1,1v2s2,0,2,0v-2c0-1.65-1.35-3-3-3h-6c-1.65,0-3,1.35-3,3v2Z"/><path class="cls-2" d="m8,10c-2.21,0-4-1.79-4-4S5.79,2,8,2s4,1.79,4,4-1.79,4-4,4Zm0-6c-1.1,0-2,.9-2,2s.9,2,2,2,2-.9,2-2-.9-2-2-2Z"/><rect id="_Transparent_Rectangle_" class="cls-1" width="32" height="32"/></g></g></g></svg>